inDegrees=no
num_controls=7
num_derivatives=13
num_iterations=139
num_multipliers=7
num_parameters=0
num_slacks=7
num_states=26
objective=0.470851
objective_accelerations=0.007692
objective_balance=0.005662
objective_effort=0.012959
objective_height=0.435820
objective_ligament=0.008717
solver_duration=2119.997583
status=Solve_Succeeded
success=true
DataType=double
version=3
OpenSimVersion=4.5
endheader
time	/jointset/ground_pelvis/pelvis_tilt/value	/jointset/ground_pelvis/pelvis_tx/value	/jointset/ground_pelvis/pelvis_ty/value	/jointset/hip_l/hip_flexion_l/value	/jointset/hip_l/hip_adduction_l/value	/jointset/hip_l/hip_rotation_l/value	/jointset/back/lumbar_extension/value	/jointset/patellofemoral_l/patellar_flexion_l/value	/jointset/knee_l/knee_flexion_l/value	/jointset/knee_l/knee_adduction_l/value	/jointset/knee_l/knee_rotation_l/value	/jointset/ankle_l/ankle_angle_l/value	/jointset/subtalar_l/subtalar_angle_l/value	/jointset/ground_pelvis/pelvis_tilt/speed	/jointset/ground_pelvis/pelvis_tx/speed	/jointset/ground_pelvis/pelvis_ty/speed	/jointset/hip_l/hip_flexion_l/speed	/jointset/hip_l/hip_adduction_l/speed	/jointset/hip_l/hip_rotation_l/speed	/jointset/back/lumbar_extension/speed	/jointset/patellofemoral_l/patellar_flexion_l/speed	/jointset/knee_l/knee_flexion_l/speed	/jointset/knee_l/knee_adduction_l/speed	/jointset/knee_l/knee_rotation_l/speed	/jointset/ankle_l/ankle_angle_l/speed	/jointset/subtalar_l/subtalar_angle_l/speed	/forceset/tau_hip_flexion_l	/forceset/tau_hip_adduction_l	/forceset/tau_hip_rotation_l	/forceset/tau_knee_flexion_l	/forceset/tau_ankle_angle_l	/forceset/tau_subtalar_angle_l	/forceset/tau_lumbar_extension	lambda_cid13_p0	lambda_cid13_p1	lambda_cid13_p2	lambda_cid13_p3	lambda_cid13_p4	lambda_cid13_p5	lambda_cid14_p0	/jointset/ground_pelvis/pelvis_tilt/accel	/jointset/ground_pelvis/pelvis_tx/accel	/jointset/ground_pelvis/pelvis_ty/accel	/jointset/hip_l/hip_flexion_l/accel	/jointset/hip_l/hip_adduction_l/accel	/jointset/hip_l/hip_rotation_l/accel	/jointset/back/lumbar_extension/accel	/jointset/patellofemoral_l/patellar_flexion_l/accel	/jointset/knee_l/knee_flexion_l/accel	/jointset/knee_l/knee_adduction_l/accel	/jointset/knee_l/knee_rotation_l/accel	/jointset/ankle_l/ankle_angle_l/accel	/jointset/subtalar_l/subtalar_angle_l/accel	gamma_cid13_p0	gamma_cid13_p1	gamma_cid13_p2	gamma_cid13_p3	gamma_cid13_p4	gamma_cid13_p5	gamma_cid14_p0
1.5	-0.2152863663109958	0.02450186577821228	0.8815148473432086	0.5398668103206115	-0.2730042966278032	-0.2376107649173461	-0.2723584346768335	0.1361151293137155	0.1361151293137535	-0.1745146126723498	0.1744581990146264	-0.04511262693414502	-0.02420423915445406	0.1203719232165678	0.09021283149283381	0.04474732646670131	-0.3904819253741725	0.03106934284068456	-0.08387663687791835	0.5901015806229153	-0.2503360977910705	-0.25033609779125	0.0002716214115607256	2.093825914043369e-05	0.01803603098367485	0.03630980367773615	-0.1081048440573041	-0.001034466842677904	-0.0167821159961359	-0.1006080863543238	0.09252477851962276	0.02676125435007312	0.1319365076573937	-10.83752926798504	-15.84907390074871	9.119705060276379	5.146379236274866	-626.8388697533803	-75.34161787961395	-41.25734567001352	0.1158575450868078	0.05174197339502672	0.006330963838339742	-0.2752914424085834	0.03154164372432405	-0.05806391452687384	0.4804714452996465	-0.1673202922502141	-0.167320292250199	-0.001694741227384006	-0.001950520351652956	-0.005333996059349823	0.03110482453193233	-1.493908185827886e-09	5.429382086871029e-09	1.978281768498617e-09	1.00983711473946e-09	-1.809879221294858e-09	6.936013956177159e-10	-4.375222951196304e-11
1.51	-0.214076993392994	0.02540641668442131	0.881962561371896	0.5359488266115794	-0.2726920499723116	-0.2384523309282124	-0.2664342629833497	0.1336038070189427	0.1336038070189776	-0.1745119382229493	0.1744583350733669	-0.04493257930210241	-0.02383962244852119	0.1214924760397835	0.09068105707264329	0.04478845241122088	-0.3930588272246238	0.03137762288168145	-0.08442051316828178	0.5946436126819593	-0.2518882971107443	-0.2518882971106804	0.0002677345983991182	3.13218771565843e-06	0.01796969351911793	0.03661001613803182	-0.1047581446976161	-0.002134883098897394	-0.0171304246377682	-0.1022989964984892	0.09415071904566651	0.02615119586804497	0.1289273299277413	-10.31201817032284	-15.6944041262055	9.115909985719608	5.088973545094355	-626.2930178533248	-75.50960495954074	-41.22269194519328	0.1086262975367306	0.04191909417022598	0.001949290100590908	-0.2404913940328012	0.0301154122364215	-0.05014155239939037	0.4276972774373421	-0.1431601555324559	-0.143160155495893	0.0009353124448614435	-0.002166737510693441	-0.007853981873534576	0.0289502837575028	-1.303025056305339e-09	5.335383330268213e-09	1.568487108375751e-09	8.225826498589637e-10	-9.147719321835449e-10	5.945784173342039e-10	2.316376160204493e-11
1.52	-0.2128567205174469	0.02631516109520774	0.8824104758360968	0.532006753516502	-0.2723767916708193	-0.2392988541152034	-0.2604673453310315	0.1310781646502376	0.1310781646502606	-0.1745091684489245	0.1744581988539897	-0.04475330911674948	-0.02347210945258957	0.1225519147269259	0.09105153240831636	0.04478741356936369	-0.3952998025818451	0.0316716720406399	-0.08486807210297773	0.5986507723902292	-0.2532001125786794	-0.2532001125783722	0.0002906863374539438	-3.351736262101801e-05	0.01788054164577324	0.03688906167749217	-0.1014114453379546	-0.003235299355115273	-0.01747873327946132	-0.1039899066426622	0.095776659571705	0.02554113738601789	0.1259181521980701	-9.787989794147871	-15.53919687505456	9.111711845803075	5.032858117413838	-625.7701591980851	-75.67923393977486	-41.1869507333362	0.1036347178720764	0.03219192456778838	-0.002101993437008502	-0.2081061437626041	0.02869546731662352	-0.03880044339337296	0.3734969751448163	-0.1192435219024654	-0.1192435219024642	0.00367296921587055	-0.005719216134032137	-0.009896877816854355	0.02687144036486466	-1.091478961898906e-09	5.178491703907017e-09	1.205639325832934e-09	6.127756764105101e-10	-4.112886654270679e-13	4.988043758457674e-10	8.223210062793651e-11
1.53	-0.2116262130507802	0.02722711638507705	0.882858166564168	0.5280439708672551	-0.2720587034387132	-0.2401494180734015	-0.2544630090791938	0.1285405529442995	0.1285405529443383	-0.1745061228010411	0.1744576368414039	-0.04457509414444343	-0.02310196066811424	0.1235321942207066	0.09132250493041714	0.04474308756070793	-0.3971947453206552	0.03193986921245857	-0.08523393411113422	0.602130941547151	-0.2542844121606885	-0.2542844121604979	0.0003152057573609085	-7.70568115379963e-05	0.01775471133809233	0.03713270384622067	-0.09796727251989246	-0.004369989259264358	-0.01784948547952959	-0.105813671950402	0.09756874546261468	0.02488563326988382	0.1228373601306102	-9.213233599344298	-15.37284667030807	9.105408253581121	4.9552943937159	-625.2555463091787	-75.84096658967387	-41.15013312051764	0.09261671390333494	0.02199687168537508	-0.006744290228869461	-0.1708912171247953	0.02496515101673845	-0.03386106858133781	0.3224464214308327	-0.09735074116137891	-0.09735074117883624	0.001356736831454848	-0.003396857333999335	-0.01508736967978992	0.02191106824438097	-8.579784673033442e-10	4.954776403427544e-09	8.926726007189196e-10	3.790066626086024e-10	9.344060439099202e-10	4.064823297020984e-10	1.329623093102045e-10
1.54	-0.2103864243594256	0.02814127079129819	0.8833051847550231	0.5240640982149798	-0.2717381165731071	-0.2410033170494909	-0.2484264372286953	0.1259932327295799	0.1259932327296345	-0.174502928897273	0.1744566943247156	-0.04439836972770116	-0.02272961536932812	0.1244081596653857	0.09149135567868097	0.04465290612607078	-0.3987178031868471	0.0321713987403637	-0.08553507568147257	0.605097892122676	-0.2551418143351478	-0.2551418143350737	0.0003203375154027274	-0.0001096181829938634	0.01758243053296844	0.03732836453965083	-0.0945230997018294	-0.005504679163403762	-0.01822023767960322	-0.1076374372581357	0.09936083135352977	0.02423012915376033	0.1197565680631438	-8.639686209267463	-15.20593553946964	9.098616286527173	4.879053079796496	-624.759224109658	-76.00382625815996	-41.11226141720928	0.08277190805168386	0.01176756980045039	-0.01127307863328675	-0.1337291692389704	0.02136193853390561	-0.0258563558297385	0.2708532588654625	-0.07386404039247933	-0.07386404039248015	-0.0002045631571916465	-0.003523600641806951	-0.0191869773053865	0.01727514530519535	-6.415213996170336e-10	4.808391290035076e-09	5.626048339234131e-10	1.567800933885602e-10	1.894406309917003e-09	2.937272197362616e-10	1.890469830427692e-10
1.55	-0.2091383672625624	0.02905659200452786	0.8837510771418432	0.5200708241779652	-0.2714154027854088	-0.241859909512847	-0.2423628796051747	0.1234384578160478	0.1234384578160702	-0.1744997920014026	0.1744554817867724	-0.04422362031593981	-0.02235556281610637	0.1251869413784054	0.09155448888929273	0.04451805335225436	-0.3998735279444829	0.0323650048495405	-0.08577348848478206	0.60751789284998	-0.2557733295350526	-0.255773329534878	0.0003040161265345185	-0.0001296195684967355	0.01735892321006663	0.03747371957551961	-0.09096456299713861	-0.006734828804691339	-0.01861402829354934	-0.1096081285755037	0.1013185569087256	0.02358759617509308	0.116583146916159	-8.013081176798504	-15.05198852735191	9.091653217192574	4.78166966034271	-624.2637596618541	-76.21015362735581	-41.07336090967407	0.07298335477039417	0.0008264515206422762	-0.01571837302492059	-0.09697282251949067	0.01740591346360691	-0.02134414548652801	0.2132125199148643	-0.05181949158993508	-0.05181949157483134	-0.002798873794619322	-0.0007475970627326203	-0.02521192042612714	0.01190096623844885	-4.447013238044241e-10	4.751104000895022e-09	2.128336930166232e-10	-5.214757229150743e-11	2.883421694878041e-09	1.57429666670972e-10	2.513009317245884e-10
1.56	-0.2078830119382055	0.02997199260082946	0.884195395601671	0.516067897154675	-0.271090943743346	-0.2427185881848163	-0.2362779941663315	0.1208785629041596	0.1208785629041481	-0.1744969089088373	0.174454167397058	-0.04405136183953588	-0.02198030965582378	0.1258678051651672	0.09150723229306795	0.04433812072763742	-0.4006484004418604	0.03252044961287522	-0.08595231740429039	0.6093634551873672	-0.2561658140069765	-0.2561658140067015	0.0002695768559488346	-0.0001299885363276776	0.01708424346142274	0.03756848595181805	-0.08740602629242097	-0.007964978445967295	-0.01900781890751982	-0.1115788198928572	0.1032762824639274	0.02294506319643861	0.1134097257691901	-7.387417006809207	-14.89748421914948	9.08415290880019	4.685697123000073	-623.7819707412176	-76.41715222640568	-41.03346461108837	0.06318832280001969	-0.01031039156679785	-0.02028904879338766	-0.05755871718734301	0.01372966936547612	-0.01393957906950933	0.1559655808820388	-0.02605789479630655	-0.02605789479630409	-0.00382813950072176	0.0004028828925838352	-0.02942146245373283	0.007157413391127118	-2.436059114301437e-10	4.640131363875284e-09	-1.378540621058432e-10	-2.570457732762232e-10	3.865858212228948e-09	4.299713199244974e-11	3.09928121913203e-10
1.57	-0.2066212603295043	0.0308863697313485	0.8846377026586758	0.5120590460980615	-0.2707650976808547	-0.2435786931152807	-0.2301776386723337	0.1183159311692424	0.1183159311692383	-0.1744944123691632	0.1744528797616918	-0.04388208868105559	-0.02160433594346722	0.1264721689935018	0.09134966232386174	0.04411674416002025	-0.4010622845078969	0.03264491015127739	-0.08605285755439024	0.6106018951641953	-0.2563182283115452	-0.2563182283114634	0.0002326960560964785	-0.0001295078914250231	0.0167646468561055	0.03762080952869463	-0.08378834421241764	-0.009227440772231955	-0.0194175213527999	-0.1136562692035684	0.1053799645347154	0.02228406124423955	0.1101928481901191	-6.717482224413431	-14.74179127497018	9.075413334655353	4.561945721272041	-623.3305016652138	-76.63313645955398	-40.99260767961344	0.05750808122376262	-0.0212601368321243	-0.02404285753526535	-0.02437438444856529	0.01122543084984613	-0.005739136385701239	0.09192093885024938	-0.003487577662273937	-0.003487577691236784	-0.003172523341828727	-0.0004242995504498831	-0.03408996416359189	0.003452176630194166	-3.716632835377474e-11	4.462052042005943e-09	-4.896875849979055e-10	-4.569071433917492e-10	4.840071145067194e-09	-4.410412970261371e-11	3.640218639853121e-10
